<svg width="41" height="41" viewBox="0 0 41 41" fill="none" xmlns="http://www.w3.org/2000/svg">
<path d="M19.5 39C30.2696 39 39 30.2696 39 19.5C39 8.73045 30.2696 0 19.5 0C8.73045 0 0 8.73045 0 19.5C0 30.2696 8.73045 39 19.5 39Z" fill="#F0B90B"/>
<path fill-rule="evenodd" clip-rule="evenodd" d="M11.775 15.293L20.508 6.56L23.9901 10.0421L15.2571 18.7751L11.775 15.293ZM11.7813 25.7287L25.7375 11.7725L29.2197 15.2547L15.2635 29.2109L11.7813 25.7287ZM30.9572 17.0021L17.001 30.9583L20.483 34.44L34.4396 20.484L30.9572 17.0021ZM6.55957 20.5074L10.0417 17.0252L13.5238 20.5074L10.0417 23.9895L6.55957 20.5074Z" fill="white"/>
</svg>
