<svg width="16" height="16" viewBox="0 0 16 16" fill="none" xmlns="http://www.w3.org/2000/svg">
<path d="M8.00001 9.33333C8.00001 8 9.05068 7.77687 9.41247 7.41597C9.77543 7.0539 10 6.55318 10 6C10 4.89543 9.10458 4 8.00001 4C7.40273 4 6.8666 4.26182 6.50014 4.67694C6.33068 4.8689 6.19751 5.09363 6.11133 5.34041" stroke="#333333" stroke-linecap="round"/>
<path fill-rule="evenodd" clip-rule="evenodd" d="M8.00016 12C8.36835 12 8.66683 11.7015 8.66683 11.3333C8.66683 10.9651 8.36835 10.6667 8.00016 10.6667C7.63197 10.6667 7.3335 10.9651 7.3335 11.3333C7.3335 11.7015 7.63197 12 8.00016 12Z" fill="#333333"/>
<path fill-rule="evenodd" clip-rule="evenodd" d="M8.00016 14.6667C11.6821 14.6667 14.6668 11.6819 14.6668 8C14.6668 4.3181 11.6821 1.33333 8.00016 1.33333C4.31826 1.33333 1.3335 4.3181 1.3335 8C1.3335 11.6819 4.31826 14.6667 8.00016 14.6667Z" stroke="#333333"/>
</svg>
