<svg width="177" height="88" viewBox="0 0 177 88" fill="none" xmlns="http://www.w3.org/2000/svg">
<g opacity="0.07">
<path d="M47.1584 22.2471C47.0152 22.2113 46.9185 22.1576 46.8684 22.0859C46.8183 22.0072 46.7932 21.9212 46.7932 21.8281C46.7932 21.8066 46.7932 21.7923 46.7932 21.7852C46.8004 21.778 46.804 21.7637 46.804 21.7422C46.8612 20.9688 46.9221 20.1595 46.9866 19.3145C47.0582 18.4622 47.1334 17.5993 47.2122 16.7256C47.2909 15.8447 47.3697 14.9674 47.4485 14.0938C47.5273 13.2201 47.606 12.3714 47.6848 11.5479H47.6741C47.6454 11.5479 47.5631 11.5729 47.427 11.623C47.2981 11.666 47.1477 11.7161 46.9758 11.7734C46.8111 11.8236 46.6428 11.8701 46.4709 11.9131C46.2991 11.9561 46.1594 11.9775 46.052 11.9775C45.9589 11.9775 45.8909 11.9417 45.8479 11.8701C45.8121 11.7985 45.7942 11.7197 45.7942 11.6338C45.7942 11.5693 45.8049 11.5085 45.8264 11.4512C46.0198 10.8926 46.2203 10.3698 46.428 9.88281C46.6357 9.39583 46.8433 8.89453 47.051 8.37891C47.5953 8.08529 48.1611 7.83105 48.7483 7.61621C49.3355 7.39421 49.9264 7.21159 50.5208 7.06836C51.1223 6.91797 51.7203 6.80697 52.3147 6.73535C52.9091 6.65658 53.4856 6.61719 54.0442 6.61719C54.8248 6.61719 55.5588 6.69954 56.2463 6.86426C56.941 7.02897 57.5426 7.27962 58.051 7.61621C58.5667 7.94564 58.9713 8.36458 59.2649 8.87305C59.5657 9.37435 59.7161 9.96517 59.7161 10.6455C59.7161 10.9391 59.6516 11.222 59.5227 11.4941C59.3938 11.7663 59.2255 12.0277 59.0178 12.2783C58.8173 12.5218 58.5917 12.751 58.3411 12.9658C58.0904 13.1735 57.8433 13.3633 57.5999 13.5352C57.9436 13.7858 58.2515 14.015 58.5237 14.2227C58.803 14.4232 59.0393 14.6344 59.2327 14.8564C59.426 15.0785 59.5728 15.3291 59.6731 15.6084C59.7734 15.8805 59.8235 16.2135 59.8235 16.6074C59.8235 17.209 59.7161 17.7855 59.5012 18.3369C59.2935 18.8812 59.0035 19.3896 58.6311 19.8623C58.2659 20.3278 57.829 20.7503 57.3206 21.1299C56.8193 21.5094 56.2714 21.8353 55.677 22.1074C55.0898 22.3724 54.4667 22.5765 53.8079 22.7197C53.1562 22.8701 52.4973 22.9453 51.8313 22.9453C51.5878 22.9453 51.262 22.9202 50.8538 22.8701C50.4456 22.82 50.0159 22.7591 49.5647 22.6875C49.1207 22.623 48.6803 22.5479 48.2434 22.4619C47.8137 22.3831 47.4521 22.3115 47.1584 22.2471ZM52.1106 10.4629C51.9745 11.3079 51.8599 12.1673 51.7668 13.041C51.6737 13.9076 51.5914 14.7526 51.5198 15.5762C51.4553 16.3926 51.398 17.1696 51.3479 17.9072C51.2978 18.6449 51.2476 19.3037 51.1975 19.8838C51.484 19.8838 51.7919 19.8695 52.1213 19.8408C52.4579 19.805 52.7909 19.7477 53.1204 19.6689C53.4498 19.5902 53.7685 19.4899 54.0764 19.3682C54.3915 19.2393 54.6672 19.0817 54.9036 18.8955C55.1399 18.7093 55.3297 18.4909 55.4729 18.2402C55.6161 17.9824 55.6877 17.6888 55.6877 17.3594C55.6877 17.1589 55.6269 16.9834 55.5051 16.833C55.3834 16.6755 55.2258 16.543 55.0325 16.4355C54.8463 16.321 54.6386 16.2279 54.4094 16.1562C54.1803 16.0775 53.9547 16.0166 53.7327 15.9736C53.5178 15.9235 53.3173 15.8877 53.1311 15.8662C52.9521 15.8376 52.816 15.8161 52.7229 15.8018C52.6226 15.7874 52.5582 15.7516 52.5295 15.6943C52.5009 15.637 52.4866 15.5654 52.4866 15.4795C52.4866 15.3864 52.5439 15.2467 52.6584 15.0605C52.773 14.8743 52.9306 14.6201 53.1311 14.2979L53.5823 13.5781C53.7756 13.5065 53.9833 13.417 54.2053 13.3096C54.4345 13.2021 54.6458 13.0804 54.8391 12.9443C55.0325 12.8011 55.1936 12.6436 55.3225 12.4717C55.4514 12.2926 55.5159 12.0993 55.5159 11.8916C55.5159 11.3044 55.387 10.8568 55.1292 10.5488C54.8785 10.2337 54.5133 10.0762 54.0334 10.0762C53.4892 10.0762 52.8482 10.2051 52.1106 10.4629ZM65.8499 15.0605C65.8499 15.5762 65.9036 16.0954 66.011 16.6182C66.1256 17.1338 66.3118 17.5993 66.5696 18.0146C66.8274 18.43 67.1676 18.7666 67.5901 19.0244C68.0126 19.2822 68.5354 19.4111 69.1584 19.4111C69.6383 19.3825 70.0572 19.2858 70.4153 19.1211C70.7805 18.9492 71.092 18.7308 71.3499 18.4658C71.6148 18.1937 71.8333 17.8857 72.0051 17.542C72.177 17.1911 72.3131 16.8258 72.4133 16.4463C72.5136 16.0596 72.5816 15.6657 72.6174 15.2646C72.6604 14.8636 72.6819 14.4769 72.6819 14.1045C72.6819 13.596 72.6139 13.1055 72.4778 12.6328C72.3417 12.153 72.1376 11.7305 71.8655 11.3652C71.5933 11 71.2532 10.7064 70.845 10.4844C70.4439 10.2624 69.9749 10.1514 69.4377 10.1514C69.0152 10.1514 68.6321 10.2301 68.2883 10.3877C67.9517 10.5452 67.651 10.7565 67.386 11.0215C67.121 11.2793 66.8918 11.5801 66.6985 11.9238C66.5123 12.2604 66.3547 12.6113 66.2258 12.9766C66.1041 13.3346 66.011 13.6963 65.9465 14.0615C65.8892 14.4196 65.857 14.7526 65.8499 15.0605ZM67.9446 22.9453C66.8704 22.9453 65.9107 22.7448 65.0657 22.3438C64.2206 21.9427 63.5045 21.402 62.9172 20.7217C62.3372 20.0342 61.8896 19.2428 61.5745 18.3477C61.2665 17.4453 61.1125 16.4928 61.1125 15.4902C61.1125 14.3659 61.2701 13.3311 61.5852 12.3857C61.9075 11.4333 62.3551 10.5918 62.928 9.86133C63.5009 9.1237 64.1812 8.50423 64.969 8.00293C65.7639 7.49447 66.634 7.11849 67.5793 6.875C67.6653 6.875 67.7297 6.80697 67.7727 6.6709C67.8228 6.53483 67.8658 6.38444 67.9016 6.21973C67.9374 6.05501 67.9804 5.90462 68.0305 5.76855C68.0806 5.63249 68.1523 5.56445 68.2454 5.56445C69.6347 5.70768 70.8844 5.95475 71.9944 6.30566C73.1044 6.64941 74.0461 7.14355 74.8196 7.78809C75.593 8.43262 76.1838 9.24902 76.592 10.2373C77.0074 11.2184 77.2151 12.418 77.2151 13.8359C77.2151 14.7454 77.1041 15.6012 76.8821 16.4033C76.6601 17.2054 76.3486 17.9466 75.9475 18.627C75.5465 19.3001 75.0631 19.9053 74.4973 20.4424C73.9387 20.9723 73.3157 21.4235 72.6282 21.7959C71.9407 22.1683 71.1995 22.4512 70.4045 22.6445C69.6168 22.8451 68.7968 22.9453 67.9446 22.9453ZM83.2092 15.0605C83.2092 15.5762 83.2629 16.0954 83.3704 16.6182C83.4849 17.1338 83.6711 17.5993 83.929 18.0146C84.1868 18.43 84.5269 18.7666 84.9495 19.0244C85.372 19.2822 85.8948 19.4111 86.5178 19.4111C86.9976 19.3825 87.4166 19.2858 87.7747 19.1211C88.1399 18.9492 88.4514 18.7308 88.7092 18.4658C88.9742 18.1937 89.1926 17.8857 89.3645 17.542C89.5364 17.1911 89.6724 16.8258 89.7727 16.4463C89.873 16.0596 89.941 15.6657 89.9768 15.2646C90.0198 14.8636 90.0413 14.4769 90.0413 14.1045C90.0413 13.596 89.9732 13.1055 89.8372 12.6328C89.7011 12.153 89.497 11.7305 89.2249 11.3652C88.9527 11 88.6125 10.7064 88.2043 10.4844C87.8033 10.2624 87.3342 10.1514 86.7971 10.1514C86.3746 10.1514 85.9915 10.2301 85.6477 10.3877C85.3111 10.5452 85.0103 10.7565 84.7454 11.0215C84.4804 11.2793 84.2512 11.5801 84.0579 11.9238C83.8717 12.2604 83.7141 12.6113 83.5852 12.9766C83.4635 13.3346 83.3704 13.6963 83.3059 14.0615C83.2486 14.4196 83.2164 14.7526 83.2092 15.0605ZM85.304 22.9453C84.2297 22.9453 83.2701 22.7448 82.425 22.3438C81.58 21.9427 80.8639 21.402 80.2766 20.7217C79.6965 20.0342 79.2489 19.2428 78.9338 18.3477C78.6259 17.4453 78.4719 16.4928 78.4719 15.4902C78.4719 14.3659 78.6295 13.3311 78.9446 12.3857C79.2668 11.4333 79.7144 10.5918 80.2874 9.86133C80.8603 9.1237 81.5406 8.50423 82.3284 8.00293C83.1233 7.49447 83.9934 7.11849 84.9387 6.875C85.0247 6.875 85.0891 6.80697 85.1321 6.6709C85.1822 6.53483 85.2252 6.38444 85.261 6.21973C85.2968 6.05501 85.3398 5.90462 85.3899 5.76855C85.44 5.63249 85.5116 5.56445 85.6047 5.56445C86.9941 5.70768 88.2437 5.95475 89.3538 6.30566C90.4638 6.64941 91.4055 7.14355 92.179 7.78809C92.9524 8.43262 93.5432 9.24902 93.9514 10.2373C94.3668 11.2184 94.5745 12.418 94.5745 13.8359C94.5745 14.7454 94.4635 15.6012 94.2415 16.4033C94.0194 17.2054 93.7079 17.9466 93.3069 18.627C92.9058 19.3001 92.4224 19.9053 91.8567 20.4424C91.2981 20.9723 90.675 21.4235 89.9875 21.7959C89.3 22.1683 88.5588 22.4512 87.7639 22.6445C86.9762 22.8451 86.1562 22.9453 85.304 22.9453Z" fill="white"/>
<path d="M47.1584 41.2471C47.0152 41.2113 46.9185 41.1576 46.8684 41.0859C46.8183 41.0072 46.7932 40.9212 46.7932 40.8281C46.7932 40.8066 46.7932 40.7923 46.7932 40.7852C46.8004 40.778 46.804 40.7637 46.804 40.7422C46.8612 39.9688 46.9221 39.1595 46.9866 38.3145C47.0582 37.4622 47.1334 36.5993 47.2122 35.7256C47.2909 34.8447 47.3697 33.9674 47.4485 33.0938C47.5273 32.2201 47.606 31.3714 47.6848 30.5479H47.6741C47.6454 30.5479 47.5631 30.5729 47.427 30.623C47.2981 30.666 47.1477 30.7161 46.9758 30.7734C46.8111 30.8236 46.6428 30.8701 46.4709 30.9131C46.2991 30.9561 46.1594 30.9775 46.052 30.9775C45.9589 30.9775 45.8909 30.9417 45.8479 30.8701C45.8121 30.7985 45.7942 30.7197 45.7942 30.6338C45.7942 30.5693 45.8049 30.5085 45.8264 30.4512C46.0198 29.8926 46.2203 29.3698 46.428 28.8828C46.6357 28.3958 46.8433 27.8945 47.051 27.3789C47.5953 27.0853 48.1611 26.8311 48.7483 26.6162C49.3355 26.3942 49.9264 26.2116 50.5208 26.0684C51.1223 25.918 51.7203 25.807 52.3147 25.7354C52.9091 25.6566 53.4856 25.6172 54.0442 25.6172C54.8248 25.6172 55.5588 25.6995 56.2463 25.8643C56.941 26.029 57.5426 26.2796 58.051 26.6162C58.5667 26.9456 58.9713 27.3646 59.2649 27.873C59.5657 28.3743 59.7161 28.9652 59.7161 29.6455C59.7161 29.9391 59.6516 30.222 59.5227 30.4941C59.3938 30.7663 59.2255 31.0277 59.0178 31.2783C58.8173 31.5218 58.5917 31.751 58.3411 31.9658C58.0904 32.1735 57.8433 32.3633 57.5999 32.5352C57.9436 32.7858 58.2515 33.015 58.5237 33.2227C58.803 33.4232 59.0393 33.6344 59.2327 33.8564C59.426 34.0785 59.5728 34.3291 59.6731 34.6084C59.7734 34.8805 59.8235 35.2135 59.8235 35.6074C59.8235 36.209 59.7161 36.7855 59.5012 37.3369C59.2935 37.8812 59.0035 38.3896 58.6311 38.8623C58.2659 39.3278 57.829 39.7503 57.3206 40.1299C56.8193 40.5094 56.2714 40.8353 55.677 41.1074C55.0898 41.3724 54.4667 41.5765 53.8079 41.7197C53.1562 41.8701 52.4973 41.9453 51.8313 41.9453C51.5878 41.9453 51.262 41.9202 50.8538 41.8701C50.4456 41.82 50.0159 41.7591 49.5647 41.6875C49.1207 41.623 48.6803 41.5479 48.2434 41.4619C47.8137 41.3831 47.4521 41.3115 47.1584 41.2471ZM52.1106 29.4629C51.9745 30.3079 51.8599 31.1673 51.7668 32.041C51.6737 32.9076 51.5914 33.7526 51.5198 34.5762C51.4553 35.3926 51.398 36.1696 51.3479 36.9072C51.2978 37.6449 51.2476 38.3037 51.1975 38.8838C51.484 38.8838 51.7919 38.8695 52.1213 38.8408C52.4579 38.805 52.7909 38.7477 53.1204 38.6689C53.4498 38.5902 53.7685 38.4899 54.0764 38.3682C54.3915 38.2393 54.6672 38.0817 54.9036 37.8955C55.1399 37.7093 55.3297 37.4909 55.4729 37.2402C55.6161 36.9824 55.6877 36.6888 55.6877 36.3594C55.6877 36.1589 55.6269 35.9834 55.5051 35.833C55.3834 35.6755 55.2258 35.543 55.0325 35.4355C54.8463 35.321 54.6386 35.2279 54.4094 35.1562C54.1803 35.0775 53.9547 35.0166 53.7327 34.9736C53.5178 34.9235 53.3173 34.8877 53.1311 34.8662C52.9521 34.8376 52.816 34.8161 52.7229 34.8018C52.6226 34.7874 52.5582 34.7516 52.5295 34.6943C52.5009 34.637 52.4866 34.5654 52.4866 34.4795C52.4866 34.3864 52.5439 34.2467 52.6584 34.0605C52.773 33.8743 52.9306 33.6201 53.1311 33.2979L53.5823 32.5781C53.7756 32.5065 53.9833 32.417 54.2053 32.3096C54.4345 32.2021 54.6458 32.0804 54.8391 31.9443C55.0325 31.8011 55.1936 31.6436 55.3225 31.4717C55.4514 31.2926 55.5159 31.0993 55.5159 30.8916C55.5159 30.3044 55.387 29.8568 55.1292 29.5488C54.8785 29.2337 54.5133 29.0762 54.0334 29.0762C53.4892 29.0762 52.8482 29.2051 52.1106 29.4629ZM65.8499 34.0605C65.8499 34.5762 65.9036 35.0954 66.011 35.6182C66.1256 36.1338 66.3118 36.5993 66.5696 37.0146C66.8274 37.43 67.1676 37.7666 67.5901 38.0244C68.0126 38.2822 68.5354 38.4111 69.1584 38.4111C69.6383 38.3825 70.0572 38.2858 70.4153 38.1211C70.7805 37.9492 71.092 37.7308 71.3499 37.4658C71.6148 37.1937 71.8333 36.8857 72.0051 36.542C72.177 36.1911 72.3131 35.8258 72.4133 35.4463C72.5136 35.0596 72.5816 34.6657 72.6174 34.2646C72.6604 33.8636 72.6819 33.4769 72.6819 33.1045C72.6819 32.596 72.6139 32.1055 72.4778 31.6328C72.3417 31.153 72.1376 30.7305 71.8655 30.3652C71.5933 30 71.2532 29.7064 70.845 29.4844C70.4439 29.2624 69.9749 29.1514 69.4377 29.1514C69.0152 29.1514 68.6321 29.2301 68.2883 29.3877C67.9517 29.5452 67.651 29.7565 67.386 30.0215C67.121 30.2793 66.8918 30.5801 66.6985 30.9238C66.5123 31.2604 66.3547 31.6113 66.2258 31.9766C66.1041 32.3346 66.011 32.6963 65.9465 33.0615C65.8892 33.4196 65.857 33.7526 65.8499 34.0605ZM67.9446 41.9453C66.8704 41.9453 65.9107 41.7448 65.0657 41.3438C64.2206 40.9427 63.5045 40.402 62.9172 39.7217C62.3372 39.0342 61.8896 38.2428 61.5745 37.3477C61.2665 36.4453 61.1125 35.4928 61.1125 34.4902C61.1125 33.3659 61.2701 32.3311 61.5852 31.3857C61.9075 30.4333 62.3551 29.5918 62.928 28.8613C63.5009 28.1237 64.1812 27.5042 64.969 27.0029C65.7639 26.4945 66.634 26.1185 67.5793 25.875C67.6653 25.875 67.7297 25.807 67.7727 25.6709C67.8228 25.5348 67.8658 25.3844 67.9016 25.2197C67.9374 25.055 67.9804 24.9046 68.0305 24.7686C68.0806 24.6325 68.1523 24.5645 68.2454 24.5645C69.6347 24.7077 70.8844 24.9548 71.9944 25.3057C73.1044 25.6494 74.0461 26.1436 74.8196 26.7881C75.593 27.4326 76.1838 28.249 76.592 29.2373C77.0074 30.2184 77.2151 31.418 77.2151 32.8359C77.2151 33.7454 77.1041 34.6012 76.8821 35.4033C76.6601 36.2054 76.3486 36.9466 75.9475 37.627C75.5465 38.3001 75.0631 38.9053 74.4973 39.4424C73.9387 39.9723 73.3157 40.4235 72.6282 40.7959C71.9407 41.1683 71.1995 41.4512 70.4045 41.6445C69.6168 41.8451 68.7968 41.9453 67.9446 41.9453ZM83.2092 34.0605C83.2092 34.5762 83.2629 35.0954 83.3704 35.6182C83.4849 36.1338 83.6711 36.5993 83.929 37.0146C84.1868 37.43 84.5269 37.7666 84.9495 38.0244C85.372 38.2822 85.8948 38.4111 86.5178 38.4111C86.9976 38.3825 87.4166 38.2858 87.7747 38.1211C88.1399 37.9492 88.4514 37.7308 88.7092 37.4658C88.9742 37.1937 89.1926 36.8857 89.3645 36.542C89.5364 36.1911 89.6724 35.8258 89.7727 35.4463C89.873 35.0596 89.941 34.6657 89.9768 34.2646C90.0198 33.8636 90.0413 33.4769 90.0413 33.1045C90.0413 32.596 89.9732 32.1055 89.8372 31.6328C89.7011 31.153 89.497 30.7305 89.2249 30.3652C88.9527 30 88.6125 29.7064 88.2043 29.4844C87.8033 29.2624 87.3342 29.1514 86.7971 29.1514C86.3746 29.1514 85.9915 29.2301 85.6477 29.3877C85.3111 29.5452 85.0103 29.7565 84.7454 30.0215C84.4804 30.2793 84.2512 30.5801 84.0579 30.9238C83.8717 31.2604 83.7141 31.6113 83.5852 31.9766C83.4635 32.3346 83.3704 32.6963 83.3059 33.0615C83.2486 33.4196 83.2164 33.7526 83.2092 34.0605ZM85.304 41.9453C84.2297 41.9453 83.2701 41.7448 82.425 41.3438C81.58 40.9427 80.8639 40.402 80.2766 39.7217C79.6965 39.0342 79.2489 38.2428 78.9338 37.3477C78.6259 36.4453 78.4719 35.4928 78.4719 34.4902C78.4719 33.3659 78.6295 32.3311 78.9446 31.3857C79.2668 30.4333 79.7144 29.5918 80.2874 28.8613C80.8603 28.1237 81.5406 27.5042 82.3284 27.0029C83.1233 26.4945 83.9934 26.1185 84.9387 25.875C85.0247 25.875 85.0891 25.807 85.1321 25.6709C85.1822 25.5348 85.2252 25.3844 85.261 25.2197C85.2968 25.055 85.3398 24.9046 85.3899 24.7686C85.44 24.6325 85.5116 24.5645 85.6047 24.5645C86.9941 24.7077 88.2437 24.9548 89.3538 25.3057C90.4638 25.6494 91.4055 26.1436 92.179 26.7881C92.9524 27.4326 93.5432 28.249 93.9514 29.2373C94.3668 30.2184 94.5745 31.418 94.5745 32.8359C94.5745 33.7454 94.4635 34.6012 94.2415 35.4033C94.0194 36.2054 93.7079 36.9466 93.3069 37.627C92.9058 38.3001 92.4224 38.9053 91.8567 39.4424C91.2981 39.9723 90.675 40.4235 89.9875 40.7959C89.3 41.1683 88.5588 41.4512 87.7639 41.6445C86.9762 41.8451 86.1562 41.9453 85.304 41.9453Z" fill="#FB9C1A"/>
<g clip-path="url(#clip0)">
<path d="M20.1311 15.4837C11.5446 16.9804 16.2281 30.5544 22.0565 29.3673C27.885 28.1802 27.3646 22.8126 26.7401 20.7481C26.1156 18.6836 23.2014 14.9675 20.1311 15.4837Z" fill="#000026"/>
<path d="M35.2746 13.7288C29.3421 14.7611 32.5686 24.2061 36.6277 23.3803C40.6867 22.5545 40.3225 18.8384 39.8541 17.3933C39.4378 15.8966 37.4083 13.316 35.2746 13.7288Z" fill="#000026"/>
<path d="M31.3199 26.5803C29.9148 27.6125 29.8628 31.0189 29.9668 32.4124C30.175 34.4769 30.8515 40.3607 33.8178 40.4639C36.6279 40.5155 36.2636 34.2705 36.0555 32.6705C35.8993 31.0189 34.3382 24.3609 31.3199 26.5803Z" fill="#000026"/>
<path d="M54.4267 27.4076C54.2706 26.1173 53.2298 23.9496 51.9809 23.5883C51.4085 23.4335 50.8881 23.6399 50.3156 24.3109C49.535 25.2399 49.431 26.5818 49.3269 27.8721C49.2748 28.3883 49.2228 28.8528 49.1708 29.3173C48.9106 30.7624 48.4422 32.8269 46.9851 34.3753C46.829 34.5301 46.6208 34.5301 46.4647 34.3753C46.3086 34.2204 46.3086 34.014 46.4647 33.8591C47.4535 32.7753 48.0779 31.3302 48.4422 29.2141C48.4942 28.8012 48.5463 28.3366 48.5983 27.8205C48.7024 26.4786 48.8585 24.9302 49.7952 23.8464C50.0034 23.5883 50.2115 23.4335 50.3677 23.2787C47.8698 15.8465 44.175 10.2208 39.2312 6.40148C33.1946 1.75639 27.4183 1.60155 26.7938 1.60155H26.6897C26.6377 1.60155 26.6377 1.60155 26.5856 1.60155C23.6714 1.03382 20.8092 0.775757 18.1552 0.775757C8.73608 0.775757 3.84437 4.18216 2.4393 6.19503C2.12706 6.65954 2.23114 6.86599 2.28318 7.02083C2.90766 8.20791 7.22693 8.72403 11.0258 8.72403H11.1299C11.286 8.72403 11.4421 8.82725 11.4942 9.0337C11.5462 9.18854 11.4421 9.39499 11.286 9.4466C-2.45241 15.7949 2.4393 33.8591 5.66575 45.7816C6.03002 47.1751 6.3943 48.4654 6.70654 49.6525C8.16364 55.433 8.31976 59.7685 4.88516 64.8264C1.34647 69.9877 -0.00655574 75.4069 1.19035 79.5875C1.91891 82.2713 3.68825 84.3358 6.1341 85.4197C8.47588 86.5035 10.0891 86.71 11.0258 86.71C12.2227 86.71 12.7431 86.3487 12.8472 86.039C12.9513 85.6777 12.639 85.2132 12.0146 84.8003C10.7136 83.9229 9.67279 81.9101 10.2452 80.0004C10.7656 78.3488 12.8472 75.6134 21.2256 75.5618C26.1693 75.5102 38.6067 74.4779 46.5167 65.7038C52.2931 59.3039 54.5829 50.0654 53.386 38.2462C53.2298 36.801 53.0737 35.4075 52.8656 34.0656C52.5533 34.4269 52.189 34.8398 51.8248 35.2011C51.7727 35.2527 51.6686 35.3043 51.5646 35.3043C51.4605 35.3043 51.3564 35.2527 51.3044 35.2011C51.1483 35.0462 51.1483 34.7882 51.3044 34.6849C53.5421 32.5172 54.6869 29.885 54.4267 27.4076ZM18.7277 43.5106C18.6756 43.5622 18.5715 43.6138 18.4675 43.6138C18.3634 43.6138 18.2593 43.5622 18.2073 43.5106C18.0511 43.3558 18.0511 43.0977 18.2073 42.9945C20.445 40.8268 21.5898 38.1946 21.3296 35.7172C21.1735 34.4269 20.1327 32.2592 18.8838 31.8979C18.3113 31.743 17.7909 31.9495 17.2185 32.6205C16.4379 33.5495 16.3338 34.8914 16.2298 36.1817C16.1777 36.6978 16.1257 37.1623 16.0736 37.6268C15.8134 39.072 15.3451 41.1365 13.888 42.6848C13.7319 42.8397 13.5237 42.8397 13.3676 42.6848C13.2115 42.53 13.2115 42.3235 13.3676 42.1687C14.3563 41.0849 14.9808 39.6397 15.3451 37.5236C15.3971 37.1107 15.4492 36.6462 15.5012 36.1301C15.6053 34.7882 15.7614 33.2398 16.6981 32.1559C17.6348 31.0205 18.5715 31.0205 19.196 31.1753C20.8092 31.6398 22.0061 34.1172 22.1623 35.614C22.3704 38.2978 21.1215 41.1881 18.7277 43.5106ZM22.0582 29.3689C16.2298 30.556 11.5462 16.982 20.1327 15.4852C23.2031 14.9691 26.1173 18.6336 26.7417 20.7497C27.3662 22.8141 27.8866 28.1818 22.0582 29.3689ZM33.8711 40.4139C30.9049 40.3107 30.1763 34.4269 30.0202 32.3624C29.9161 30.9689 29.9161 27.5625 31.3733 26.5302C34.3915 24.3109 35.9527 30.9689 36.1609 32.6205C36.265 34.2204 36.6813 40.5171 33.8711 40.4139ZM36.6292 23.3303C32.5702 24.1561 29.3437 14.711 35.2762 13.6788C37.4098 13.3175 39.4394 15.8981 39.8557 17.3433C40.324 18.7884 40.6883 22.5045 36.6292 23.3303Z" fill="#DEE1EA"/>
<path d="M55.1546 27.3544C54.9985 25.8061 53.8016 23.3803 52.1884 22.9158C51.8761 22.8126 51.4598 22.761 50.9915 22.9158C48.4936 15.432 44.6947 9.70309 39.6989 5.83217C33.5062 0.980631 27.4696 0.825795 26.7931 0.825795H26.7411C23.7228 0.258061 20.8606 0 18.1545 0C9.62007 0 3.79164 2.89028 1.81414 5.78056C1.34579 6.50313 1.44987 7.07087 1.60598 7.38054C2.43862 8.98052 6.96605 9.3418 9.62007 9.44502C-3.02553 16.5675 1.71006 34.2189 4.88447 45.9864C5.24875 47.38 5.61303 48.6703 5.92526 49.8573C7.38237 55.5863 7.53849 59.5604 4.20796 64.412C0.513156 69.8829 -0.787831 75.3537 0.461116 79.844C1.29375 82.7343 3.16717 84.9536 5.82118 86.1923C8.31908 87.3278 10.0364 87.5342 11.0251 87.5342C12.3782 87.5342 13.3669 87.0697 13.5751 86.2955C13.7832 85.6246 13.3669 84.8504 12.4302 84.231C11.3374 83.5085 10.4527 81.8569 10.9731 80.2569C11.3894 78.8118 13.3149 76.386 21.2249 76.3344C26.2727 76.2828 38.9183 75.1989 47.0365 66.2184C52.969 59.6637 55.3628 50.2186 54.1138 38.193C53.9577 36.4898 53.6975 34.8382 53.4373 33.2382C54.7903 31.3802 55.3628 29.3157 55.1546 27.3544ZM51.3037 34.6834C51.1476 34.8382 51.1476 35.0447 51.3037 35.1995C51.3557 35.2511 51.4598 35.3027 51.5639 35.3027C51.668 35.3027 51.772 35.2511 51.8241 35.1995C52.1884 34.8382 52.5526 34.4769 52.8649 34.064C53.073 35.4059 53.2812 36.7995 53.3853 38.2446C54.5822 50.0638 52.2924 59.2508 46.5161 65.7023C38.6061 74.4763 26.2207 75.5086 21.2249 75.5602C12.8465 75.6118 10.7129 78.3989 10.2445 79.9988C9.67211 81.9601 10.7129 83.9214 12.0139 84.7988C12.6384 85.2117 12.9506 85.6762 12.8465 86.0375C12.7424 86.3471 12.222 86.7084 11.0251 86.7084C10.0884 86.7084 8.4752 86.502 6.13342 85.4181C3.68756 84.3343 1.97026 82.2182 1.18967 79.5859C-0.00723909 75.3537 1.34579 69.9861 4.88447 64.8249C8.31908 59.7669 8.16296 55.4315 6.70585 49.6509C6.39362 48.4638 6.02934 47.1219 5.66506 45.78C2.43862 33.8576 -2.4531 15.7933 11.3374 9.44502C11.4935 9.39341 11.5976 9.18696 11.5455 9.03213C11.4935 8.87729 11.3374 8.72245 11.1813 8.72245H11.0772C7.27829 8.72245 2.95901 8.20633 2.33454 7.01925C2.23046 6.86442 2.17842 6.60636 2.49066 6.19346C3.89572 4.18058 8.73539 0.72257 18.2066 0.72257C20.8086 0.774182 23.6707 1.03224 26.637 1.59998C26.689 1.59998 26.689 1.59998 26.7411 1.59998H26.8451C27.4696 1.59998 33.298 1.75481 39.2826 6.39991C44.1743 10.2192 47.9211 15.8449 50.367 23.2771C50.1588 23.4319 49.9507 23.5868 49.7945 23.8448C48.8578 24.9287 48.7538 26.477 48.5976 27.819C48.5456 28.2835 48.4936 28.748 48.4415 29.2125C48.0772 31.3802 47.4528 32.7737 46.464 33.8576C46.3079 34.0124 46.3079 34.2705 46.464 34.3737C46.6201 34.5285 46.8803 34.5285 46.9844 34.3737C48.4415 32.8253 48.9099 30.7608 49.1701 29.3157C49.2221 28.8512 49.2742 28.3867 49.3262 27.8706C49.4303 26.5803 49.5344 25.1867 50.3149 24.3093C50.8874 23.6384 51.4078 23.4319 51.9802 23.5868C53.2292 23.948 54.2699 26.1158 54.4261 27.4061C54.6863 29.8834 53.5414 32.5157 51.3037 34.6834Z" fill="#000026"/>
<path d="M19.0903 31.1221C18.4658 30.9157 17.5811 30.9673 16.5924 32.1027C15.6557 33.1866 15.5516 34.735 15.3955 36.0769C15.3434 36.5414 15.2914 37.0059 15.2394 37.4704C14.8751 39.6381 14.2506 41.0317 13.2619 42.1155C13.1057 42.2703 13.1057 42.5284 13.2619 42.6316C13.418 42.7865 13.6782 42.7865 13.7823 42.6316C15.2394 41.0833 15.7077 39.0188 15.9679 37.5736C16.02 37.1091 16.072 36.6446 16.124 36.1285C16.2281 34.8382 16.3322 33.4447 17.1128 32.5673C17.6852 31.8963 18.2056 31.6899 18.778 31.8447C20.027 32.206 21.0678 34.3737 21.2239 35.664C21.4841 38.1414 20.3392 40.7736 18.1015 42.9413C17.9454 43.0961 17.9454 43.3026 18.1015 43.4574C18.1536 43.509 18.2577 43.5607 18.3617 43.5607C18.4658 43.5607 18.5699 43.509 18.6219 43.4574C21.0678 41.1349 22.2647 38.2446 21.9525 35.5608C21.9004 34.064 20.7035 31.6382 19.0903 31.1221Z" fill="#000026"/>
<path d="M41.3113 12.0773C38.241 7.69024 32.2044 6.55478 26.8443 6.70961C22.1608 6.86445 17.0609 8.10314 14.3549 11.9224C13.0018 13.8837 12.4814 16.3095 11.9611 18.5804C11.6488 19.9739 11.3366 21.3675 11.4927 22.761C11.7009 24.619 12.6896 26.2706 13.6263 27.819C14.511 29.2641 15.4477 30.7609 16.6966 31.8963C17.5813 30.9157 18.466 30.9157 19.0384 31.0706C20.2874 31.4318 21.2761 33.0318 21.7445 34.4253C24.5026 35.1995 27.4168 35.406 30.279 34.9931C30.0708 33.9092 29.9667 32.9286 29.9147 32.3092C29.8106 30.9157 29.8106 27.5093 31.2677 26.4771C34.286 24.2577 35.8472 30.9157 36.0553 32.5673C36.0553 32.7738 36.1074 33.0318 36.1074 33.3415C36.1594 33.2899 36.2115 33.2899 36.2635 33.2383C39.3338 31.7931 42.144 29.4706 43.2888 26.2706C44.0694 24.0513 43.9653 21.5739 43.7051 19.2514C43.4449 16.774 42.8205 14.1934 41.3113 12.0773ZM22.0567 29.3674C16.2283 30.5544 11.5447 16.9804 20.1313 15.4837C23.2016 14.9676 26.1158 18.632 26.7403 20.7481C27.3647 22.8126 27.8851 28.1803 22.0567 29.3674ZM36.6278 23.3287C32.5687 24.1545 29.3422 14.7095 35.2747 13.6773C37.4084 13.316 39.4379 15.8966 39.8542 17.3417C40.3226 18.7869 40.6869 22.5029 36.6278 23.3287Z" fill="white"/>
<path d="M9.35902 5.5741C9.61921 5.78054 9.87941 5.88377 10.1916 5.98699C13.2099 6.8644 16.5925 6.39989 19.2465 4.79991C19.5067 4.64508 19.7669 4.49024 19.871 4.23218C20.1832 3.61283 19.7149 2.94188 19.1945 2.58059C17.5292 1.39351 15.2395 1.70319 13.2099 2.06447C12.8457 2.11608 12.4293 2.21931 12.0651 2.27092C11.1804 2.42576 10.2437 2.6322 9.56717 3.19994C8.89066 3.81928 8.63046 5.00636 9.35902 5.5741Z" fill="white"/>
<path d="M19.6108 36.7995C19.767 35.7156 19.9231 34.5801 19.5068 33.5479C18.9864 32.9802 17.9976 33.2898 17.5813 33.9092C17.165 34.5285 17.217 35.3543 17.2691 36.0769C17.3211 36.593 17.4252 37.1607 17.7895 37.522C18.1537 37.9349 18.8303 38.0898 19.1945 37.7285C19.5068 37.522 19.5588 37.1607 19.6108 36.7995Z" fill="white"/>
<path d="M52.4476 29.8834C52.8119 29.6254 52.9159 29.1609 53.02 28.748C53.1761 28.077 53.3322 27.3544 53.1241 26.7351C52.8639 26.1157 51.9792 25.7028 51.4588 26.1157C51.3548 26.219 51.2507 26.3738 51.1466 26.5286C50.6782 27.2512 50.2619 28.1286 50.4701 28.9544C50.6782 29.7286 51.7711 30.3996 52.4476 29.8834Z" fill="white"/>
<path d="M40.3224 60.9024C40.6347 62.2443 42.0918 63.0701 43.4448 63.0185C44.7978 62.9668 46.0988 62.2443 47.0355 61.2636C48.9089 59.4056 49.8977 56.825 50.7303 54.3476C51.0426 53.3154 51.4068 52.2831 51.3028 51.1993C51.1987 50.1154 50.5742 49.0316 49.5334 48.7219C48.5447 48.4122 47.5039 48.8767 46.7753 49.5993C46.0468 50.3219 45.5784 51.2509 45.058 52.1283C44.0172 53.8831 42.7162 55.4831 41.5193 57.1347C40.7387 58.2701 39.9581 59.6121 40.3224 60.9024Z" fill="white"/>
<path d="M15.1355 73.186C13.8345 73.4957 12.6376 74.3215 11.2845 74.5279C9.93152 74.786 8.26626 74.2183 8.00606 72.8763C7.90198 72.257 8.16218 71.586 8.47442 71.0183C10.1917 67.5087 12.8457 64.3603 13.3661 60.541C13.6263 58.5798 13.262 56.5669 12.7937 54.6056C10.504 45.2638 5.61224 36.4382 5.35205 26.8383C5.24797 22.8126 5.97652 18.7868 6.75711 14.8643C6.96527 13.832 7.22547 12.6966 7.74586 11.7159C-1.46513 19.4062 2.80211 35.0446 5.66428 45.8316C6.02856 47.2251 6.39284 48.5154 6.70507 49.7025C8.16218 55.483 8.3183 59.8185 4.88369 64.8764C1.34501 70.0377 -0.00802076 75.4569 1.18889 79.6375C1.91744 82.3214 3.68678 84.3858 6.13264 85.4697C8.47442 86.5536 10.0876 86.76 11.0244 86.76C12.2213 86.76 12.7417 86.3987 12.8457 86.089C12.9498 85.7278 12.6376 85.2632 12.0131 84.8503C10.7121 83.9729 9.67132 81.9601 10.2438 80.0504C10.7642 78.3988 12.8457 75.6634 21.2241 75.6118C22.2649 75.6118 23.6699 75.5602 25.2311 75.4053C24.8148 75.3021 24.3985 75.1989 23.9822 75.0957C21.12 74.1666 18.1017 72.4634 15.1355 73.186Z" fill="#B4B6BE"/>
<path d="M21.7964 38.6059C21.3281 40.3607 20.2352 42.0123 18.7261 43.509C18.6741 43.5607 18.57 43.6123 18.4659 43.6123C18.3618 43.6123 18.2577 43.5607 18.2057 43.509C18.0496 43.3542 18.0496 43.0962 18.2057 42.9929C19.4026 41.8058 20.2873 40.5155 20.8077 39.1736C19.8189 40.5155 18.1016 41.3929 16.6445 42.4252C16.2282 42.7349 15.7598 43.0961 15.6037 43.6123C15.5517 43.8187 15.5517 44.0768 15.6037 44.2832C15.8119 45.5735 17.3731 46.3477 18.6741 46.0897C19.975 45.78 20.9638 44.6961 21.4842 43.509C22.2127 41.9091 22.2648 40.1543 21.7964 38.6059Z" fill="#B4B6BE"/>
</g>
</g>
<defs>
<clipPath id="clip0">
<rect width="55.2139" height="87.5342" fill="white"/>
</clipPath>
</defs>
</svg>
