<svg width="30" height="22" viewBox="0 0 30 22" fill="none" xmlns="http://www.w3.org/2000/svg">
<path d="M29.9998 12.1046C29.9998 15.6775 28.4598 18.8808 25.9957 21.1292C25.3797 20.5748 24.6713 20.0512 23.9321 19.62C23.6549 19.466 23.3777 19.312 23.1005 19.1888C22.7001 19.004 22.2997 18.85 21.8993 18.696C20.6364 18.2647 19.312 18.0183 17.8952 18.0183C16.4784 18.0183 15.1231 18.2647 13.8603 18.696C13.7987 18.7268 13.7679 18.7268 13.7063 18.7576C13.5523 18.8192 13.4291 18.85 13.2751 18.9116C12.3203 19.312 11.4271 19.8048 10.6263 20.4208C10.3491 20.6364 10.041 20.8828 9.79464 21.0984C9.67144 20.9752 9.51744 20.852 9.39423 20.7288C9.20943 20.544 9.05543 20.39 8.87062 20.2052C7.5154 18.696 6.52978 16.8787 6.06777 14.8459C5.85217 13.9835 5.75977 13.0594 5.75977 12.1046C5.75977 10.0102 6.28338 8.03895 7.23819 6.31412C7.8234 5.2669 8.53182 4.31208 9.39423 3.48047C9.79464 3.08006 10.195 2.74125 10.6263 2.40245C11.4271 1.78643 12.3203 1.29362 13.2751 0.893217C13.4291 0.831616 13.5523 0.770015 13.7063 0.739214C13.7679 0.708413 13.7987 0.708413 13.8603 0.677613C15.0923 0.246405 16.4476 0 17.8644 0C19.2504 0 20.6056 0.246405 21.8685 0.677613C24.9793 1.75563 27.5358 4.09648 28.891 7.05333C29.1374 7.57694 29.353 8.13135 29.507 8.68576C29.5686 8.90137 29.6302 9.14777 29.6918 9.36338C29.8766 10.2566 29.9998 11.1806 29.9998 12.1046Z" fill="#E95930"/>
<path d="M23.6857 15.4003C23.6857 16.7247 23.4701 17.9875 23.0697 19.1888C22.6693 19.004 22.2689 18.85 21.8685 18.696C20.6057 18.2648 19.2813 18.0183 17.8644 18.0183C16.4476 18.0183 15.0924 18.2648 13.8296 18.696C13.768 18.7268 13.7372 18.7268 13.6756 18.7576C13.5215 18.8192 13.3983 18.85 13.2443 18.9116C12.2895 19.312 11.3963 19.8048 10.5955 20.4208C10.3183 20.6364 10.0103 20.8828 9.76388 21.0984C9.64068 20.9752 9.48667 20.852 9.36347 20.7288C9.17867 20.544 9.02467 20.39 8.83986 20.2052C7.48464 18.696 6.49902 16.8787 6.03701 14.8459C5.82141 13.9835 5.729 13.0595 5.729 12.1046C5.729 10.0102 6.25261 8.03896 7.20743 6.31413C7.79264 5.26691 8.50106 4.31209 9.36347 3.48047C10.0719 3.35727 10.8111 3.29567 11.5503 3.29567C12.9363 3.29567 14.2916 3.54207 15.5544 3.97328C18.6652 5.0513 21.2217 7.39215 22.5769 10.349C22.8233 10.8726 23.0389 11.427 23.1929 11.9814C23.2545 12.197 23.3161 12.4434 23.3777 12.659C23.5625 13.5523 23.6857 14.4763 23.6857 15.4003Z" fill="#EA7E35"/>
<path d="M22.9467 14.5379C22.9467 14.4763 22.9159 14.4455 22.9159 14.4147C22.8235 14.1683 22.5463 13.9527 22.3923 13.7062C21.9919 13.0594 21.7763 12.2894 21.6223 11.5194C20.7291 11.6426 19.8359 12.043 19.4971 12.197L19.5279 12.2278C19.6203 12.4434 19.7127 12.6282 19.7435 12.6898C20.1131 13.3058 20.6675 13.737 21.0371 14.3531C21.4067 14.9691 21.3451 15.7391 21.2835 16.4475C21.2527 16.7863 21.1911 17.1251 21.1911 17.4639C21.1911 17.8335 21.3143 18.2031 21.2835 18.5727C21.2527 18.9423 21.1911 19.2812 21.0679 19.62C21.0063 19.8048 20.9447 20.0204 20.8523 20.2052C20.8215 20.2976 20.6367 20.5748 20.6675 20.6364C20.7599 20.852 21.7147 20.7288 21.8995 20.6364C22.2691 20.4208 21.9611 19.62 22.0227 19.2812C22.0535 19.1272 22.0843 18.9731 22.1151 18.8191C22.2075 18.2955 22.1459 17.7411 22.2075 17.1867C22.2691 16.6939 22.3923 16.2319 22.5155 15.7699C22.6387 15.4311 23.0083 14.9383 22.9467 14.5379Z" fill="#434343"/>
<path d="M26.7659 12.7206C26.7351 12.7514 26.7043 12.7822 26.7043 12.813H26.6735C26.6427 12.813 26.6427 12.813 26.6119 12.7822C26.5811 12.7514 26.5503 12.7514 26.5195 12.7206C26.4887 12.6898 26.4579 12.659 26.4271 12.6282C26.3963 12.5974 26.3963 12.5666 26.3655 12.5666C26.3655 12.5666 26.3655 12.5666 26.3655 12.5358C26.2731 12.3818 26.1807 12.2278 26.0883 12.0738C25.9959 11.889 25.9035 11.7042 25.8419 11.5194C25.8419 11.5194 25.8419 11.5194 25.8419 11.4886C25.8111 11.4578 25.8111 11.3962 25.7803 11.3654C25.7495 11.273 25.6879 11.1806 25.6571 11.0882C25.5031 10.6878 25.3491 10.2874 25.1027 9.91779C25.0719 9.85619 25.0103 9.79459 24.9795 9.70219C24.8563 9.51739 24.7331 9.36338 24.5483 9.20938C24.3327 8.99378 24.0555 8.80897 23.8091 8.62417C23.7475 8.56257 23.6859 8.53177 23.6243 8.47017C23.7475 8.71657 23.9015 8.99378 23.9939 9.20938C24.3019 9.91779 24.4559 10.657 24.6407 11.3962C24.8255 12.2586 25.0719 13.1211 25.5647 13.8603C25.7187 14.1067 26.0267 14.2915 26.1499 14.5687C26.1807 14.5995 26.1807 14.6611 26.1807 14.6919C26.2423 15.0615 25.8419 15.5851 25.7187 15.9547C25.5339 16.4167 25.4415 16.8787 25.3491 17.3715C25.2567 17.9259 25.3491 18.4804 25.2259 19.004C25.1951 19.158 25.1643 19.312 25.1335 19.466C25.0719 19.8356 25.2259 20.2052 25.1643 20.5748C25.0719 21.0368 24.1787 20.9136 23.8091 20.9136C23.7783 20.9136 23.7167 20.9136 23.6859 20.9136C23.5011 20.8212 23.9939 19.9896 24.0555 19.8356C24.1787 19.4968 24.2711 19.158 24.3019 18.7884C24.3327 18.4188 24.2095 18.0491 24.2095 17.6795C24.2095 17.3407 24.2711 17.0019 24.3019 16.6631C24.3635 15.9855 24.4559 15.1847 24.0247 14.5687C23.6243 13.9835 22.9775 13.5215 22.5771 12.9054C22.4847 12.7514 21.7762 11.3038 21.653 11.3038C21.2526 11.3346 20.8522 11.4578 20.4826 11.581C19.6202 11.9198 18.727 12.3818 17.7722 12.3202C17.187 12.2894 16.6942 12.043 16.1397 11.8582C15.8625 11.7658 15.5853 11.7042 15.3081 11.6734C15.2465 11.6734 15.2465 11.6734 15.1541 11.6734C15.1541 11.4886 15.0617 11.1806 14.9693 10.7802C14.9693 10.7802 14.9693 11.1806 14.9385 11.6734C14.9385 11.9506 14.9077 12.2586 14.8769 12.5358V12.5666C14.8461 12.8438 14.8153 13.1519 14.7845 13.4291C14.6921 14.2915 14.6613 15.2155 14.9385 16.0471C15.1849 16.8479 14.8153 17.5563 14.7537 18.3572C14.7229 18.7884 14.7229 19.2196 14.7537 19.62C14.7537 19.8048 14.8153 20.0204 14.7537 20.2052C14.7537 20.236 14.7537 20.2668 14.7229 20.2976C14.7229 20.698 14.6305 21.0984 14.1685 21.1292C14.0145 21.1292 13.8297 21.0984 13.6757 21.0676C13.7065 21.0676 13.7065 21.0676 13.7373 21.0984C13.3061 21.0984 13.3061 20.9136 13.4909 20.5748C13.6449 20.2668 13.7989 19.9896 13.8605 19.6508C13.9221 19.1888 13.8913 18.696 13.8605 18.2339C13.8297 17.8643 13.8605 17.4331 13.7373 17.0943C13.6141 16.6939 13.3061 16.3551 13.1829 15.9239C13.0905 15.5543 13.2445 15.2155 13.1829 14.8459C13.0905 14.3531 12.9057 13.8603 12.7517 13.3367C12.6901 13.1519 12.5977 12.9363 12.5361 12.7514C12.4745 12.5666 12.3821 12.351 12.2897 12.1046C12.0433 11.4886 11.4581 11.1806 11.4273 11.1806C11.4273 11.2114 11.9201 11.7966 12.1973 12.197C12.3205 12.351 12.4129 12.6282 12.5053 12.8438C12.4129 13.1519 12.3513 13.4291 12.3205 13.7679C12.2589 14.1067 12.2281 14.4147 12.2897 14.7535C12.3205 15.0615 12.4129 15.3387 12.5053 15.6467C12.5361 15.7391 12.5669 15.8623 12.5977 15.9547C12.5977 16.0163 12.6285 16.0471 12.6285 16.1087C12.6285 16.1395 12.6285 16.1703 12.6285 16.2011C12.6285 16.2627 12.6285 16.3551 12.6285 16.4167C12.6285 16.4475 12.6285 16.4783 12.6285 16.5091C12.6285 16.5091 12.6285 16.5091 12.6285 16.5399C12.6285 16.5707 12.6285 16.6323 12.6285 16.6323C12.6285 16.6939 12.5977 16.7555 12.5977 16.8171C12.5361 17.3407 12.4437 17.8643 12.4129 18.388C12.3821 18.85 12.4129 19.3736 12.5361 19.8356C12.5977 20.0512 12.5977 20.39 12.5053 20.5748C12.3821 20.8212 10.9652 20.852 10.996 20.4824C11.0268 20.1744 11.2732 19.8972 11.3657 19.62C11.4581 19.2812 11.4581 18.9116 11.4581 18.542C11.4581 17.8643 11.4889 17.1867 11.3657 16.5399C11.3349 16.4167 11.3041 16.2935 11.3041 16.1703C11.2733 16.1395 11.2424 16.0779 11.2424 15.9855C11.2424 15.9239 11.2424 15.8623 11.2424 15.8007C11.2424 15.7083 11.2424 15.6159 11.2424 15.5235C11.2424 15.4619 11.2424 15.4003 11.2424 15.3387C11.2116 14.5071 11.0268 13.7063 10.8728 12.9054C10.7188 12.1046 10.5956 11.273 10.5648 10.4414C10.5032 10.3798 10.4108 10.3182 10.3492 10.2566C10.2568 10.1642 10.1644 10.0718 10.072 9.9794C9.61002 10.041 9.11721 9.97939 8.6244 9.91779C7.94679 9.79459 7.26918 9.60979 6.71476 9.17858C6.43756 8.96298 6.19115 8.71657 5.97555 8.43937C5.69835 8.13136 5.48274 7.79255 5.29794 7.45375C4.77433 6.52973 4.49712 5.51331 4.21992 4.49689C3.60391 4.9589 2.80309 4.55849 2.27948 4.09648C2.09468 3.94248 1.97148 3.81928 1.81747 3.75768H1.78667C1.75587 3.75768 1.75587 3.75768 1.72507 3.75768C1.72507 3.75768 1.72507 3.75768 1.69427 3.75768C1.38627 3.78848 1.10906 3.88088 0.801054 3.91168C0.55465 3.94248 0.339046 3.72688 0.277445 3.48047C0.0618407 3.35727 -0.0613616 3.11087 0.0310401 2.80286C0.154242 2.24845 1.20146 2.00205 1.69427 1.87884C2.24868 1.75564 2.37188 1.75564 2.80309 1.41683C3.0803 1.17043 3.4499 1.04723 3.78871 0.985626C4.49712 0.862424 5.26714 0.924025 5.94475 1.20123C6.12955 1.29363 6.22196 1.38603 6.12955 1.54004C5.97555 1.81724 5.57514 1.90964 5.26714 1.97124C5.14394 2.00205 4.98993 2.03285 4.83593 2.00205C4.95913 2.03285 5.14394 2.06365 5.26714 2.09445C5.39034 2.12525 5.48274 2.27925 5.57514 2.37165C5.66754 2.49485 5.79075 2.61806 5.88315 2.74126C6.06795 3.01846 6.22196 3.29567 6.37596 3.57287C6.59156 4.03488 6.80717 4.49689 7.02277 4.9589C7.20757 5.35931 7.45398 5.66731 7.79279 5.94452C8.10079 6.19092 8.6244 6.71453 9.02481 6.37573C9.20961 6.22172 9.30201 5.97532 9.42521 5.79052C10.1644 4.7741 11.7661 4.7741 12.5977 3.81928C13.5525 2.80286 14.1377 0.708421 16.0473 0.924025C17.9878 1.17043 19.6202 3.35727 20.5134 4.9281C21.0062 5.82132 21.9611 6.03692 22.5771 6.86854C22.7003 7.02254 22.7927 7.17654 22.9159 7.33055C23.6243 7.94656 24.4867 8.31616 25.1335 8.99378C25.4723 9.33258 25.6571 9.76379 25.7803 10.2258C25.8727 10.6262 25.9343 11.0574 26.0575 11.4578C26.1807 11.8274 26.3347 12.1662 26.6427 12.3202C26.7967 12.3818 26.8583 12.5974 26.7659 12.7206Z" fill="#434343"/>
<path d="M12.5671 16.5091C12.5671 16.5399 12.5671 16.5707 12.5671 16.6015C12.5671 16.6015 12.5671 16.6015 12.5671 16.6323C12.5671 16.6631 12.5671 16.7247 12.5671 16.7247C12.5671 16.7863 12.5363 16.8479 12.5363 16.9095C12.4747 17.4331 12.3823 17.9567 12.3515 18.4803C12.3207 18.9424 12.3515 19.466 12.4747 19.928C12.5363 20.1436 12.5363 20.4824 12.4439 20.6672C12.3207 20.9136 10.9038 20.9444 10.9346 20.5748C10.9654 20.2668 11.2118 19.9896 11.3042 19.7124C11.3966 19.3736 11.3966 19.004 11.3966 18.6343C11.3966 17.9567 11.4274 17.2791 11.3042 16.6323C11.2734 16.5091 11.2426 16.3859 11.2426 16.2627C11.2118 16.2319 11.181 16.1703 11.181 16.0779C11.181 16.0163 11.181 15.9547 11.181 15.8931C11.181 15.8007 11.181 15.7083 11.181 15.6159C11.181 15.5543 11.181 15.4927 11.181 15.4311C11.1502 14.5995 10.9654 13.7987 10.8114 12.9978C10.6574 12.197 10.5342 11.3654 10.5034 10.5338C11.027 10.7494 11.4274 11.273 11.4274 11.273L11.7354 11.581L12.2282 12.2278L12.5055 12.9362C12.4131 13.2442 12.3515 13.5215 12.3207 13.8603C12.2591 14.1991 12.2282 14.5071 12.2898 14.8459C12.3207 15.1539 12.4131 15.4311 12.5055 15.7391C12.5363 15.8315 12.5671 15.9547 12.5979 16.0471C12.5979 16.1087 12.6287 16.1395 12.6287 16.2011C12.6287 16.2319 12.6287 16.2627 12.6287 16.2935C12.5671 16.3551 12.5671 16.4475 12.5671 16.5091Z" fill="#434343"/>
</svg>
