<svg width="73" height="51" viewBox="0 0 73 51" fill="none" xmlns="http://www.w3.org/2000/svg">
<path d="M72.4116 29.2172C72.4116 37.8411 68.6944 45.5729 62.7469 51C61.26 49.6618 59.5501 48.398 57.7658 47.3571C57.0967 46.9854 56.4276 46.6137 55.7585 46.3163C54.792 45.8703 53.8256 45.4985 52.8591 45.1268C49.811 44.086 46.6142 43.4913 43.1944 43.4913C39.7746 43.4913 36.5034 44.086 33.4553 45.1268C33.3066 45.2012 33.2323 45.2012 33.0836 45.2755C32.7119 45.4242 32.4145 45.4985 32.0428 45.6472C29.7381 46.6137 27.5821 47.8032 25.6492 49.2901C24.9801 49.8105 24.2367 50.4053 23.6419 50.9257C23.3445 50.6283 22.9728 50.3309 22.6754 50.0335C22.2294 49.5875 21.8576 49.2157 21.4116 48.7697C18.1404 45.1268 15.7614 40.7405 14.6463 35.8338C14.1259 33.7522 13.9028 31.5219 13.9028 29.2172C13.9028 24.1618 15.1667 19.4038 17.4713 15.2405C18.8839 12.7128 20.5938 10.4082 22.6754 8.40088C23.6419 7.4344 24.6084 6.61662 25.6492 5.79883C27.5821 4.31195 29.7381 3.12245 32.0428 2.15598C32.4145 2.00729 32.7119 1.8586 33.0836 1.78426C33.2323 1.70991 33.3066 1.70991 33.4553 1.63557C36.4291 0.594752 39.7002 0 43.12 0C46.4655 0 49.7366 0.594752 52.7848 1.63557C60.2935 4.23761 66.4641 9.88776 69.7352 17.0248C70.3299 18.2886 70.8504 19.6268 71.2221 20.965C71.3708 21.4854 71.5195 22.0802 71.6681 22.6006C72.1142 24.7566 72.4116 26.9869 72.4116 29.2172Z" fill="#E95930"/>
<path d="M57.1712 37.172C57.1712 40.3688 56.6508 43.4169 55.6843 46.3163C54.7178 45.8703 53.7514 45.4986 52.7849 45.1268C49.7368 44.086 46.54 43.4913 43.1202 43.4913C39.7003 43.4913 36.4292 44.086 33.3811 45.1268C33.2324 45.2012 33.1581 45.2012 33.0094 45.2755C32.6377 45.4242 32.3403 45.4986 31.9686 45.6473C29.6639 46.6137 27.5079 47.8032 25.575 49.2901C24.9059 49.8105 24.1624 50.4053 23.5677 50.9257C23.2703 50.6283 22.8986 50.3309 22.6012 50.0336C22.1551 49.5875 21.7834 49.2158 21.3374 48.7697C18.0662 45.1268 15.6872 40.7405 14.5721 35.8338C14.0516 33.7522 13.8286 31.5219 13.8286 29.2172C13.8286 24.1618 15.0925 19.4038 17.3971 15.2405C18.8097 12.7129 20.5196 10.4082 22.6012 8.4009C24.3111 8.10352 26.0954 7.95483 27.8796 7.95483C31.2251 7.95483 34.4963 8.54959 37.5444 9.5904C45.0531 12.1924 51.2237 17.8426 54.4948 24.9796C55.0896 26.2435 55.61 27.5817 55.9817 28.9198C56.1304 29.4403 56.2791 30.035 56.4277 30.5554C56.8738 32.7114 57.1712 34.9417 57.1712 37.172Z" fill="#EA7E35"/>
<path d="M55.3871 35.0904C55.3871 34.9417 55.3127 34.8674 55.3127 34.793C55.0897 34.1983 54.4206 33.6779 54.0489 33.0831C53.0824 31.5219 52.562 29.6633 52.1903 27.8047C50.0343 28.1021 47.8783 29.0685 47.0605 29.4403L47.1349 29.5146C47.3579 30.035 47.581 30.4811 47.6553 30.6298C48.5474 32.1166 49.8856 33.1575 50.7777 34.6443C51.6699 36.1312 51.5212 37.9898 51.3725 39.6997C51.2982 40.5175 51.1495 41.3353 51.1495 42.1531C51.1495 43.0452 51.4468 43.9373 51.3725 44.8295C51.2982 45.7216 51.1495 46.5394 50.8521 47.3572C50.7034 47.8032 50.5547 48.3236 50.3317 48.7697C50.2573 48.9927 49.8113 49.6618 49.8856 49.8105C50.1087 50.3309 52.4133 50.0335 52.8594 49.8105C53.7515 49.2901 53.0081 47.3572 53.1568 46.5394C53.2311 46.1677 53.3054 45.7959 53.3798 45.4242C53.6028 44.1604 53.4541 42.8222 53.6028 41.484C53.7515 40.2945 54.0489 39.1793 54.3463 38.0642C54.6436 37.2464 55.5358 36.0569 55.3871 35.0904Z" fill="#E7CA7A"/>
<path d="M64.6055 30.7041C64.5312 30.7784 64.4569 30.8528 64.4569 30.9271H64.3825C64.3082 30.9271 64.3082 30.9271 64.2338 30.8528C64.1595 30.7784 64.0851 30.7784 64.0108 30.7041C63.9364 30.6297 63.8621 30.5554 63.7878 30.4811C63.7134 30.4067 63.7134 30.3324 63.6391 30.3324C63.6391 30.3324 63.6391 30.3324 63.6391 30.258C63.416 29.8863 63.193 29.5146 62.97 29.1429C62.7469 28.6968 62.5239 28.2507 62.3752 27.8047C62.3752 27.8047 62.3752 27.8047 62.3752 27.7303C62.3009 27.656 62.3009 27.5073 62.2265 27.433C62.1522 27.2099 62.0035 26.9869 61.9292 26.7639C61.5574 25.7974 61.1857 24.8309 60.591 23.9388C60.5166 23.7901 60.3679 23.6414 60.2936 23.4184C59.9962 22.9723 59.6988 22.6006 59.2528 22.2289C58.7324 21.7085 58.0633 21.2624 57.4685 20.8163C57.3198 20.6676 57.1711 20.5933 57.0224 20.4446C57.3198 21.0394 57.6915 21.7085 57.9146 22.2289C58.658 23.9388 59.0297 25.723 59.4758 27.5073C59.9219 29.5889 60.5166 31.6706 61.7061 33.4548C62.0778 34.0496 62.8213 34.4956 63.1187 35.1647C63.193 35.2391 63.193 35.3878 63.193 35.4621C63.3417 36.3542 62.3752 37.6181 62.0778 38.5102C61.6318 39.6254 61.4087 40.7405 61.1857 41.93C60.9627 43.2682 61.1857 44.6064 60.8883 45.8703C60.814 46.242 60.7397 46.6137 60.6653 46.9854C60.5166 47.8776 60.8883 48.7697 60.7397 49.6618C60.5166 50.777 58.3606 50.4796 57.4685 50.4796C57.3942 50.4796 57.2455 50.4796 57.1711 50.4796C56.7251 50.2566 57.9146 48.2493 58.0633 47.8776C58.3606 47.0598 58.5837 46.242 58.658 45.3499C58.7324 44.4577 58.435 43.5656 58.435 42.6735C58.435 41.8557 58.5837 41.0379 58.658 40.2201C58.8067 38.5846 59.0297 36.6516 57.9889 35.1647C57.0224 33.7522 55.4612 32.637 54.4948 31.1502C54.2717 30.7784 52.5618 27.2843 52.2644 27.2843C51.298 27.3586 50.3315 27.656 49.4394 27.9534C47.3577 28.7711 45.2017 29.8863 42.8971 29.7376C41.4845 29.6633 40.295 29.0685 38.9568 28.6225C38.2878 28.3994 37.6187 28.2507 36.9496 28.1764C36.8009 28.1764 36.8009 28.1764 36.5778 28.1764C36.5778 27.7303 36.3548 26.9869 36.1318 26.0204C36.1318 26.0204 36.1318 26.9869 36.0574 28.1764C36.0574 28.8455 35.9831 29.5889 35.9087 30.258V30.3324C35.8344 31.0015 35.7601 31.7449 35.6857 32.414C35.4627 34.4956 35.3883 36.726 36.0574 38.7332C36.6522 40.6662 35.7601 42.3761 35.6114 44.309C35.537 45.3499 35.537 46.3907 35.6114 47.3572C35.6114 47.8032 35.7601 48.3236 35.6114 48.7697C35.6114 48.844 35.6114 48.9184 35.537 48.9927C35.537 49.9592 35.314 50.9257 34.1988 51C33.8271 51 33.381 50.9257 33.0093 50.8513C33.0837 50.8513 33.0837 50.8513 33.158 50.9257C32.1172 50.9257 32.1172 50.4796 32.5633 49.6618C32.935 48.9184 33.3067 48.2493 33.4554 47.4315C33.6041 46.3163 33.5297 45.1268 33.4554 44.0117C33.381 43.1195 33.4554 42.0787 33.158 41.2609C32.8606 40.2945 32.1172 39.4767 31.8198 38.4359C31.5968 37.5437 31.9685 36.726 31.8198 35.8338C31.5968 34.6443 31.1507 33.4548 30.779 32.191C30.6303 31.7449 30.4073 31.2245 30.2586 30.7784C30.1099 30.3324 29.8869 29.812 29.6638 29.2172C29.0691 27.7303 27.6566 26.9869 27.5822 26.9869C27.5822 27.0612 28.7717 28.4738 29.4408 29.4402C29.7382 29.812 29.9612 30.4811 30.1843 31.0015C29.9612 31.7449 29.8125 32.414 29.7382 33.2318C29.5895 34.0496 29.5152 34.793 29.6638 35.6108C29.7382 36.3542 29.9612 37.0233 30.1843 37.7668C30.2586 37.9898 30.3329 38.2872 30.4073 38.5102C30.4073 38.6589 30.4816 38.7332 30.4816 38.8819C30.4816 38.9563 30.4816 39.0306 30.4816 39.105C30.4816 39.2537 30.4816 39.4767 30.4816 39.6254C30.4816 39.6997 30.4816 39.7741 30.4816 39.8484C30.4816 39.8484 30.4816 39.8484 30.4816 39.9228C30.4816 39.9971 30.4816 40.1458 30.4816 40.1458C30.4816 40.2945 30.4073 40.4432 30.4073 40.5918C30.2586 41.8557 30.0356 43.1195 29.9612 44.3834C29.8869 45.4986 29.9612 46.7624 30.2586 47.8776C30.4073 48.398 30.4073 49.2158 30.1843 49.6618C29.8869 50.2566 26.4671 50.3309 26.5414 49.4388C26.6157 48.6953 27.2105 48.0262 27.4335 47.3572C27.6566 46.5394 27.6566 45.6472 27.6566 44.7551C27.6566 43.1195 27.7309 41.484 27.4335 39.9228C27.3592 39.6254 27.2848 39.328 27.2848 39.0306C27.2105 38.9563 27.1361 38.8076 27.1361 38.5846C27.1361 38.4359 27.1361 38.2872 27.1361 38.1385C27.1361 37.9155 27.1361 37.6924 27.1361 37.4694C27.1361 37.3207 27.1361 37.172 27.1361 37.0233C27.0618 35.016 26.6157 33.0831 26.244 31.1502C25.8723 29.2172 25.5749 27.2099 25.5006 25.2026C25.3519 25.0539 25.1289 24.9053 24.9802 24.7566C24.7571 24.5335 24.5341 24.3105 24.3111 24.0875C23.1959 24.2362 22.0064 24.0875 20.8169 23.9388C19.1813 23.6414 17.5458 23.1953 16.2076 22.1545C15.5385 21.6341 14.9437 21.0394 14.4233 20.3703C13.7542 19.6268 13.2338 18.809 12.7878 17.9913C11.5239 15.7609 10.8548 13.3076 10.1857 10.8542C8.69883 11.9694 6.76588 11.0029 5.50204 9.88776C5.05597 9.51604 4.7586 9.21867 4.38688 9.06998H4.31253C4.23819 9.06998 4.23819 9.06998 4.16384 9.06998C4.16384 9.06998 4.16384 9.06998 4.0895 9.06998C3.34606 9.14432 2.67696 9.36736 1.93352 9.4417C1.33877 9.51604 0.818362 8.99564 0.669674 8.40088C0.149266 8.10351 -0.14811 7.50876 0.0749222 6.76532C0.372298 5.42712 2.89999 4.83237 4.0895 4.53499C5.42769 4.23762 5.72507 4.23762 6.76588 3.41983C7.43498 2.82508 8.32711 2.52771 9.14489 2.37902C10.8548 2.08164 12.7134 2.23033 14.349 2.89943C14.795 3.12246 15.0181 3.34549 14.795 3.71721C14.4233 4.38631 13.4568 4.60934 12.7134 4.75803C12.416 4.83237 12.0443 4.90671 11.6726 4.83237C11.97 4.90671 12.416 4.98106 12.7134 5.0554C13.0108 5.12975 13.2338 5.50147 13.4568 5.7245C13.6799 6.02187 13.9773 6.31925 14.2003 6.61663C14.6464 7.28572 15.0181 7.95482 15.3898 8.62392C15.9102 9.73908 16.4306 10.8542 16.951 11.9694C17.3971 12.9359 17.9918 13.6793 18.8096 14.3484C19.5531 14.9432 20.8169 16.207 21.7834 15.3892C22.2294 15.0175 22.4525 14.4227 22.7498 13.9767C24.5341 11.5233 28.4 11.5233 30.4073 9.21867C32.7119 6.76531 34.1245 1.70992 38.7338 2.23033C43.4175 2.82508 47.3577 8.10351 49.5137 11.8951C50.7032 14.051 53.0079 14.5714 54.4948 16.5787C54.7921 16.9504 55.0152 17.3222 55.3125 17.6939C57.0224 19.1808 59.1041 20.0729 60.6653 21.7085C61.4831 22.5262 61.9292 23.5671 62.2265 24.6822C62.4496 25.6487 62.5983 26.6895 62.8956 27.656C63.193 28.5481 63.5647 29.3659 64.3082 29.7376C64.6799 29.8863 64.8286 30.4067 64.6055 30.7041Z" fill="#E7CA7A"/>
<path d="M30.3331 39.8484C30.3331 39.9227 30.3331 39.9971 30.3331 40.0714C30.3331 40.0714 30.3331 40.0714 30.3331 40.1458C30.3331 40.2201 30.3331 40.3688 30.3331 40.3688C30.3331 40.5175 30.2588 40.6662 30.2588 40.8149C30.1101 42.0787 29.887 43.3426 29.8127 44.6064C29.7383 45.7216 29.8127 46.9854 30.1101 48.1006C30.2588 48.621 30.2588 49.4388 30.0357 49.8848C29.7383 50.4796 26.3185 50.5539 26.3929 49.6618C26.4672 48.9184 27.062 48.2493 27.285 47.5802C27.508 46.7624 27.508 45.8703 27.508 44.9781C27.508 43.3426 27.5824 41.707 27.285 40.1458C27.2107 39.8484 27.1363 39.551 27.1363 39.2536C27.062 39.1793 26.9876 39.0306 26.9876 38.8076C26.9876 38.6589 26.9876 38.5102 26.9876 38.3615C26.9876 38.1385 26.9876 37.9155 26.9876 37.6924C26.9876 37.5437 26.9876 37.395 26.9876 37.2464C26.9133 35.2391 26.4672 33.3061 26.0955 31.3732C25.7238 29.4402 25.4264 27.4329 25.3521 25.4257C26.6159 25.9461 27.5824 27.2099 27.5824 27.2099L28.3258 27.9534L29.5153 29.5146L30.1844 31.2245C29.9614 31.9679 29.8127 32.637 29.7383 33.4548C29.5897 34.2726 29.5153 35.016 29.664 35.8338C29.7383 36.5773 29.9614 37.2464 30.1844 37.9898C30.2588 38.2128 30.3331 38.5102 30.4074 38.7332C30.4074 38.8819 30.4818 38.9563 30.4818 39.105C30.4818 39.1793 30.4818 39.2536 30.4818 39.328C30.3331 39.4767 30.3331 39.6997 30.3331 39.8484Z" fill="#E7CA7A"/>
</svg>
