<svg width="24" height="24" viewBox="0 0 24 24" fill="none" xmlns="http://www.w3.org/2000/svg">
<path d="M20.5762 13.1523L21.2863 13.3937C21.3782 13.1232 21.3085 12.824 21.1065 12.622C20.9045 12.42 20.6053 12.3503 20.3348 12.4422L20.5762 13.1523ZM10.4238 3L11.1339 3.24138C11.2259 2.9709 11.1562 2.67168 10.9542 2.46967C10.7522 2.26766 10.4529 2.19796 10.1825 2.28991L10.4238 3ZM18 14.3262C18.9845 14.3262 19.9325 14.1633 20.8175 13.8624L20.3348 12.4422C19.6031 12.6909 18.8181 12.8262 18 12.8262V14.3262ZM9.25 5.57616C9.25 10.4087 13.1675 14.3262 18 14.3262V12.8262C13.9959 12.8262 10.75 9.58022 10.75 5.57616H9.25ZM9.71374 2.75862C9.41288 3.6437 9.25 4.59169 9.25 5.57616H10.75C10.75 4.75803 10.8852 3.97304 11.1339 3.24138L9.71374 2.75862ZM10.1825 2.28991C6.73327 3.46239 4.25 6.7283 4.25 10.5762H5.75C5.75 7.39006 7.80568 4.68214 10.6652 3.71009L10.1825 2.28991ZM4.25 10.5762C4.25 15.4087 8.16751 19.3262 13 19.3262V17.8262C8.99594 17.8262 5.75 14.5802 5.75 10.5762H4.25ZM13 19.3262C16.8479 19.3262 20.1138 16.8429 21.2863 13.3937L19.8661 12.9109C18.894 15.7705 16.1861 17.8262 13 17.8262V19.3262Z" fill="#828282"/>
</svg>
