<svg width="21" height="18" viewBox="0 0 21 18" fill="none" xmlns="http://www.w3.org/2000/svg">
<path d="M19.6254 3.21309C18.877 4.28461 17.9432 5.21385 16.868 5.95705L16.868 5.95703C16.8 7.83656 16.2513 9.66728 15.2745 11.2744C14.2976 12.8816 12.925 14.2115 11.2879 15.1373C9.65077 16.063 7.80367 16.5537 5.92294 16.5625C4.0422 16.5712 2.19061 16.0978 0.544922 15.1873L0.54548 15.1863C2.69447 15.1565 4.78715 14.4948 6.56255 13.2836L6.56249 13.2837C4.66199 11.9884 3.2145 10.1308 2.42297 7.9713C1.63144 5.81185 1.53555 3.45883 2.14874 1.24213L2.14871 1.24215C3.02696 2.59468 4.1919 3.73754 5.56098 4.58976C6.93007 5.44197 8.46982 5.9827 10.0711 6.17363L10.0709 6.17368C9.90226 5.36982 10.027 4.53216 10.4224 3.81228C10.8179 3.09241 11.458 2.53788 12.2269 2.24907C12.9958 1.96025 13.8427 1.95623 14.6143 2.23773C15.3859 2.51922 16.0312 3.06764 16.4335 3.78372L16.4336 3.7841C17.5198 3.75169 18.5953 3.55928 19.6254 3.21309" stroke="#828282" stroke-linecap="round" stroke-linejoin="round"/>
</svg>
